<?xml version="1.0" encoding="utf-8" standalone="no"?>
<!DOCTYPE svg PUBLIC "-//W3C//DTD SVG 1.1//EN"
  "http://www.w3.org/Graphics/SVG/1.1/DTD/svg11.dtd">
<svg xmlns:xlink="http://www.w3.org/1999/xlink" width="510.23622pt" height="313.2pt" viewBox="0 0 510.23622 313.2" xmlns="http://www.w3.org/2000/svg" version="1.1">
 <metadata>
  <rdf:RDF xmlns:dc="http://purl.org/dc/elements/1.1/" xmlns:cc="http://creativecommons.org/ns#" xmlns:rdf="http://www.w3.org/1999/02/22-rdf-syntax-ns#">
   <cc:Work>
    <dc:type rdf:resource="http://purl.org/dc/dcmitype/StillImage"/>
    <dc:date>2026-05-04T20:51:58.730934</dc:date>
    <dc:format>image/svg+xml</dc:format>
    <dc:creator>
     <cc:Agent>
      <dc:title>Matplotlib v3.10.8, https://matplotlib.org/</dc:title>
     </cc:Agent>
    </dc:creator>
   </cc:Work>
  </rdf:RDF>
 </metadata>
 <defs>
  <style type="text/css">*{stroke-linejoin: round; stroke-linecap: butt}</style>
 </defs>
 <g id="figure_1">
  <g id="patch_1">
   <path d="M 0 313.2 
L 510.23622 313.2 
L 510.23622 0 
L 0 0 
z
" style="fill: #ffffff"/>
  </g>
  <g id="axes_1">
   <g id="patch_2">
    <path d="M 140.243499 119.1726 
L 181.827036 119.1726 
L 181.827036 103.8258 
L 140.243499 103.8258 
z
" clip-path="url(#p02cafb565d)" style="fill: url(#h27f906cdaf); stroke: #c6ccd5; stroke-width: 0.4; stroke-linejoin: miter"/>
   </g>
   <g id="patch_3">
    <path d="M 189.387679 207.08784 
L 200.350612 207.08784 
L 200.350612 187.79472 
L 189.387679 187.79472 
z
" clip-path="url(#p02cafb565d)" style="fill: #ffffff; stroke: #a8b0ba; stroke-width: 0.7; stroke-linejoin: miter"/>
   </g>
   <g id="line2d_1">
    <path d="M 74.087871 111.4992 
L 181.827036 111.4992 
" clip-path="url(#p02cafb565d)" style="fill: none; stroke: #b8c0cc; stroke-width: 1.6; stroke-linecap: round"/>
   </g>
   <g id="line2d_2">
    <path d="M 140.243499 129.0384 
L 140.243499 93.96 
" clip-path="url(#p02cafb565d)" style="fill: none; stroke: #7b6ba8; stroke-width: 1.2; stroke-linecap: round"/>
   </g>
   <g id="line2d_3">
    <path d="M 74.087871 199.1952 
L 181.827036 199.1952 
" clip-path="url(#p02cafb565d)" style="fill: none; stroke: #b8c0cc; stroke-width: 1.6; stroke-linecap: round"/>
   </g>
   <g id="line2d_4">
    <path d="M 191.466856 193.49496 
L 198.271435 193.49496 
" clip-path="url(#p02cafb565d)" style="fill: none; stroke: #a8b0ba; stroke-width: 0.55; stroke-linecap: round"/>
   </g>
   <g id="line2d_5">
    <path d="M 191.466856 197.44128 
L 198.271435 197.44128 
" clip-path="url(#p02cafb565d)" style="fill: none; stroke: #a8b0ba; stroke-width: 0.55; stroke-linecap: round"/>
   </g>
   <g id="line2d_6">
    <path d="M 191.466856 201.3876 
L 196.57029 201.3876 
" clip-path="url(#p02cafb565d)" style="fill: none; stroke: #a8b0ba; stroke-width: 0.55; stroke-linecap: round"/>
   </g>
   <g id="text_1">
    <text style="font-weight: 700; font-size: 10px; font-family: 'Arial', 'DejaVu Sans', 'Liberation Sans', 'Bitstream Vera Sans', sans-serif; text-anchor: start; fill: #333333" x="21.163369" y="30.961012" transform="rotate(-0 21.163369 30.961012)">a</text>
   </g>
   <g id="text_2">
    <text style="font-weight: 700; font-size: 8.2px; font-family: 'Arial', 'DejaVu Sans', 'Liberation Sans', 'Bitstream Vera Sans', sans-serif; text-anchor: start; fill: #7b6ba8" x="41.955138" y="78.504753" transform="rotate(-0 41.955138 78.504753)">Layer 1</text>
   </g>
   <g id="text_3">
    <text style="font-size: 7.2px; font-family: 'Arial', 'DejaVu Sans', 'Liberation Sans', 'Bitstream Vera Sans', sans-serif; text-anchor: middle; fill: #2f1b78" x="147.804142" y="78.282113" transform="rotate(-0 147.804142 78.282113)">Prospective temporal prediction</text>
   </g>
   <g id="PathCollection_1">
    <defs>
     <path id="m29604d973b" d="M 0 2 
C 0.530406 2 1.03916 1.789267 1.414214 1.414214 
C 1.789267 1.03916 2 0.530406 2 0 
C 2 -0.530406 1.789267 -1.03916 1.414214 -1.414214 
C 1.03916 -1.789267 0.530406 -2 0 -2 
C -0.530406 -2 -1.03916 -1.789267 -1.414214 -1.414214 
C -1.789267 -1.03916 -2 -0.530406 -2 0 
C -2 0.530406 -1.789267 1.03916 -1.414214 1.414214 
C -1.03916 1.789267 -0.530406 2 0 2 
z
" style="stroke: #ffffff; stroke-width: 0.35"/>
    </defs>
    <g clip-path="url(#p02cafb565d)">
     <use xlink:href="#m29604d973b" x="79.758354" y="111.4992" style="fill: #c4b9e0; stroke: #ffffff; stroke-width: 0.35"/>
    </g>
   </g>
   <g id="PathCollection_2">
    <g clip-path="url(#p02cafb565d)">
     <use xlink:href="#m29604d973b" x="93.462019" y="111.4992" style="fill: #c4b9e0; stroke: #ffffff; stroke-width: 0.35"/>
    </g>
   </g>
   <g id="PathCollection_3">
    <g clip-path="url(#p02cafb565d)">
     <use xlink:href="#m29604d973b" x="107.165685" y="111.4992" style="fill: #c4b9e0; stroke: #ffffff; stroke-width: 0.35"/>
    </g>
   </g>
   <g id="PathCollection_4">
    <g clip-path="url(#p02cafb565d)">
     <use xlink:href="#m29604d973b" x="120.869351" y="111.4992" style="fill: #c4b9e0; stroke: #ffffff; stroke-width: 0.35"/>
    </g>
   </g>
   <g id="PathCollection_5">
    <g clip-path="url(#p02cafb565d)">
     <use xlink:href="#m29604d973b" x="134.573017" y="111.4992" style="fill: #c4b9e0; stroke: #ffffff; stroke-width: 0.35"/>
    </g>
   </g>
   <g id="text_4">
    <text style="font-size: 7px; font-family: 'Arial', 'DejaVu Sans', 'Liberation Sans', 'Bitstream Vera Sans', sans-serif; text-anchor: middle; fill: #7b6ba8" x="140.243499" y="89.28015" transform="rotate(-0 140.243499 89.28015)">T</text>
   </g>
   <g id="text_5">
    <text style="font-size: 6.4px; font-family: 'Arial', 'DejaVu Sans', 'Liberation Sans', 'Bitstream Vera Sans', sans-serif; text-anchor: middle; fill: #333333" x="161.035268" y="113.1537" transform="rotate(-0 161.035268 113.1537)">future masked</text>
   </g>
   <g id="patch_4">
    <path d="M 182.772117 111.4992 
Q 190.33276 111.4992 196.998976 111.4992 
" style="fill: none; stroke: #8a8f98; stroke-width: 0.8; stroke-linecap: round"/>
    <path d="M 192.198976 109.0992 
L 196.998976 111.4992 
L 192.198976 113.8992 
" style="fill: none; stroke: #8a8f98; stroke-width: 0.8; stroke-linecap: round"/>
   </g>
   <g id="text_6">
    <text style="font-size: 7px; font-family: 'Arial', 'DejaVu Sans', 'Liberation Sans', 'Bitstream Vera Sans', sans-serif; text-anchor: middle; fill: #333333" x="113.781248" y="141.768994" transform="rotate(-0 113.781248 141.768994)">Evidence visible only to anchor T</text>
   </g>
   <g id="text_7">
    <text style="font-weight: 700; font-size: 8.2px; font-family: 'Arial', 'DejaVu Sans', 'Liberation Sans', 'Bitstream Vera Sans', sans-serif; text-anchor: start; fill: #7b6ba8" x="41.955138" y="166.200753" transform="rotate(-0 41.955138 166.200753)">Layer 2</text>
   </g>
   <g id="text_8">
    <text style="font-size: 7.2px; font-family: 'Arial', 'DejaVu Sans', 'Liberation Sans', 'Bitstream Vera Sans', sans-serif; text-anchor: middle; fill: #2f1b78" x="147.804142" y="165.9798" transform="rotate(-0 147.804142 165.9798)">Retrospective synthesis / extraction</text>
   </g>
   <g id="PathCollection_6">
    <defs>
     <path id="mf29ca40ac2" d="M 0 2 
C 0.530406 2 1.03916 1.789267 1.414214 1.414214 
C 1.789267 1.03916 2 0.530406 2 0 
C 2 -0.530406 1.789267 -1.03916 1.414214 -1.414214 
C 1.03916 -1.789267 0.530406 -2 0 -2 
C -0.530406 -2 -1.03916 -1.789267 -1.414214 -1.414214 
C -1.789267 -1.03916 -2 -0.530406 -2 0 
C -2 0.530406 -1.789267 1.03916 -1.414214 1.414214 
C -1.03916 1.789267 -0.530406 2 0 2 
z
" style="stroke: #ffffff; stroke-width: 0.35"/>
    </defs>
    <g clip-path="url(#p02cafb565d)">
     <use xlink:href="#mf29ca40ac2" x="79.758354" y="199.1952" style="fill: #7b6ba8; stroke: #ffffff; stroke-width: 0.35"/>
    </g>
   </g>
   <g id="PathCollection_7">
    <g clip-path="url(#p02cafb565d)">
     <use xlink:href="#mf29ca40ac2" x="93.529525" y="199.1952" style="fill: #7b6ba8; stroke: #ffffff; stroke-width: 0.35"/>
    </g>
   </g>
   <g id="PathCollection_8">
    <g clip-path="url(#p02cafb565d)">
     <use xlink:href="#mf29ca40ac2" x="107.300697" y="199.1952" style="fill: #7b6ba8; stroke: #ffffff; stroke-width: 0.35"/>
    </g>
   </g>
   <g id="PathCollection_9">
    <g clip-path="url(#p02cafb565d)">
     <use xlink:href="#mf29ca40ac2" x="121.071868" y="199.1952" style="fill: #7b6ba8; stroke: #ffffff; stroke-width: 0.35"/>
    </g>
   </g>
   <g id="PathCollection_10">
    <g clip-path="url(#p02cafb565d)">
     <use xlink:href="#mf29ca40ac2" x="134.84304" y="199.1952" style="fill: #7b6ba8; stroke: #ffffff; stroke-width: 0.35"/>
    </g>
   </g>
   <g id="PathCollection_11">
    <g clip-path="url(#p02cafb565d)">
     <use xlink:href="#mf29ca40ac2" x="148.614211" y="199.1952" style="fill: #7b6ba8; stroke: #ffffff; stroke-width: 0.35"/>
    </g>
   </g>
   <g id="PathCollection_12">
    <g clip-path="url(#p02cafb565d)">
     <use xlink:href="#mf29ca40ac2" x="162.385382" y="199.1952" style="fill: #7b6ba8; stroke: #ffffff; stroke-width: 0.35"/>
    </g>
   </g>
   <g id="PathCollection_13">
    <g clip-path="url(#p02cafb565d)">
     <use xlink:href="#mf29ca40ac2" x="176.156554" y="199.1952" style="fill: #7b6ba8; stroke: #ffffff; stroke-width: 0.35"/>
    </g>
   </g>
   <g id="patch_5">
    <path d="M 183.339165 199.1952 
Q 185.229326 199.1952 186.113256 199.1952 
" style="fill: none; stroke: #b8c0cc; stroke-width: 0.9; stroke-linecap: round"/>
    <path d="M 181.313256 196.7952 
L 186.113256 199.1952 
L 181.313256 201.5952 
" style="fill: none; stroke: #b8c0cc; stroke-width: 0.9; stroke-linecap: round"/>
   </g>
   <g id="text_9">
    <text style="font-size: 6.3px; font-family: 'Arial', 'DejaVu Sans', 'Liberation Sans', 'Bitstream Vera Sans', sans-serif; fill: #6b7280" transform="translate(181.211927 216.859022)">discharge</text>
    <text style="font-size: 6.3px; font-family: 'Arial', 'DejaVu Sans', 'Liberation Sans', 'Bitstream Vera Sans', sans-serif; fill: #6b7280" transform="translate(184.713841 222.243455)">context</text>
   </g>
   <g id="text_10">
    <text style="font-size: 7px; font-family: 'Arial', 'DejaVu Sans', 'Liberation Sans', 'Bitstream Vera Sans', sans-serif; text-anchor: middle; fill: #333333" x="125.122213" y="227.31525" transform="rotate(-0 125.122213 227.31525)">full stay context</text>
   </g>
   <g id="text_11">
    <text style="font-size: 6.9px; font-family: 'Arial', 'DejaVu Sans', 'Liberation Sans', 'Bitstream Vera Sans', sans-serif; text-anchor: middle; fill: #333333" x="125.122213" y="245.2356" transform="rotate(-0 125.122213 245.2356)">Mechanism · treatment · NIHSS · complications</text>
   </g>
   <g id="text_12">
    <text style="font-size: 9.5px; font-family: 'Arial', 'DejaVu Sans', 'Liberation Sans', 'Bitstream Vera Sans', sans-serif; text-anchor: start; fill: #262626" x="30.614173" y="38.112" transform="rotate(-0 30.614173 38.112)">Layer 1 vs Layer 2 reasoning regimes</text>
   </g>
  </g>
  <g id="axes_2">
   <g id="patch_6">
    <path d="M 294.579236 269.352 
L 500.031496 269.352 
L 500.031496 50.112 
L 294.579236 50.112 
z
" style="fill: #ffffff"/>
   </g>
   <g id="matplotlib.axis_1">
    <g id="xtick_1">
     <g id="line2d_7">
      <path d="M 314.721615 269.352 
L 314.721615 50.112 
" clip-path="url(#p77724d2258)" style="fill: none; stroke-dasharray: 1.35,1.35; stroke-dashoffset: 0; stroke: #d4d4d4; stroke-opacity: 0.62; stroke-width: 0.45"/>
     </g>
     <g id="text_13">
      <text style="font-size: 11px; font-family: 'Arial', 'DejaVu Sans', 'Liberation Sans', 'Bitstream Vera Sans', sans-serif; text-anchor: middle; fill: #262626" x="314.721615" y="286.725594" transform="rotate(-0 314.721615 286.725594)">0.2</text>
     </g>
    </g>
    <g id="xtick_2">
     <g id="line2d_8">
      <path d="M 355.006372 269.352 
L 355.006372 50.112 
" clip-path="url(#p77724d2258)" style="fill: none; stroke-dasharray: 1.35,1.35; stroke-dashoffset: 0; stroke: #d4d4d4; stroke-opacity: 0.62; stroke-width: 0.45"/>
     </g>
     <g id="text_14">
      <text style="font-size: 11px; font-family: 'Arial', 'DejaVu Sans', 'Liberation Sans', 'Bitstream Vera Sans', sans-serif; text-anchor: middle; fill: #262626" x="355.006372" y="286.725594" transform="rotate(-0 355.006372 286.725594)">0.3</text>
     </g>
    </g>
    <g id="xtick_3">
     <g id="line2d_9">
      <path d="M 395.291128 269.352 
L 395.291128 50.112 
" clip-path="url(#p77724d2258)" style="fill: none; stroke-dasharray: 1.35,1.35; stroke-dashoffset: 0; stroke: #d4d4d4; stroke-opacity: 0.62; stroke-width: 0.45"/>
     </g>
     <g id="text_15">
      <text style="font-size: 11px; font-family: 'Arial', 'DejaVu Sans', 'Liberation Sans', 'Bitstream Vera Sans', sans-serif; text-anchor: middle; fill: #262626" x="395.291128" y="286.725594" transform="rotate(-0 395.291128 286.725594)">0.4</text>
     </g>
    </g>
    <g id="xtick_4">
     <g id="line2d_10">
      <path d="M 435.575885 269.352 
L 435.575885 50.112 
" clip-path="url(#p77724d2258)" style="fill: none; stroke-dasharray: 1.35,1.35; stroke-dashoffset: 0; stroke: #d4d4d4; stroke-opacity: 0.62; stroke-width: 0.45"/>
     </g>
     <g id="text_16">
      <text style="font-size: 11px; font-family: 'Arial', 'DejaVu Sans', 'Liberation Sans', 'Bitstream Vera Sans', sans-serif; text-anchor: middle; fill: #262626" x="435.575885" y="286.725594" transform="rotate(-0 435.575885 286.725594)">0.5</text>
     </g>
    </g>
    <g id="xtick_5">
     <g id="line2d_11">
      <path d="M 475.860642 269.352 
L 475.860642 50.112 
" clip-path="url(#p77724d2258)" style="fill: none; stroke-dasharray: 1.35,1.35; stroke-dashoffset: 0; stroke: #d4d4d4; stroke-opacity: 0.62; stroke-width: 0.45"/>
     </g>
     <g id="text_17">
      <text style="font-size: 11px; font-family: 'Arial', 'DejaVu Sans', 'Liberation Sans', 'Bitstream Vera Sans', sans-serif; text-anchor: middle; fill: #262626" x="475.860642" y="286.725594" transform="rotate(-0 475.860642 286.725594)">0.6</text>
     </g>
    </g>
    <g id="text_18">
     <text style="font-size: 8.5px; font-family: 'Arial', 'DejaVu Sans', 'Liberation Sans', 'Bitstream Vera Sans', sans-serif; text-anchor: middle; fill: #262626" x="397.305366" y="298.995984" transform="rotate(-0 397.305366 298.995984)">Macro primary score</text>
    </g>
   </g>
   <g id="matplotlib.axis_2">
    <g id="ytick_1">
     <g id="text_19">
      <text style="font-size: 7px; font-family: 'Arial', 'DejaVu Sans', 'Liberation Sans', 'Bitstream Vera Sans', sans-serif; text-anchor: end; fill: #262626" x="285.079236" y="62.582689" transform="rotate(-0 285.079236 62.582689)">MedGemma-4B</text>
     </g>
    </g>
    <g id="ytick_2">
     <g id="text_20">
      <text style="font-size: 7px; font-family: 'Arial', 'DejaVu Sans', 'Liberation Sans', 'Bitstream Vera Sans', sans-serif; text-anchor: end; fill: #262626" x="285.079236" y="87.496325" transform="rotate(-0 285.079236 87.496325)">Gemma4-26B</text>
     </g>
    </g>
    <g id="ytick_3">
     <g id="text_21">
      <text style="font-size: 7px; font-family: 'Arial', 'DejaVu Sans', 'Liberation Sans', 'Bitstream Vera Sans', sans-serif; text-anchor: end; fill: #262626" x="285.079236" y="112.409962" transform="rotate(-0 285.079236 112.409962)">Aloe-7B</text>
     </g>
    </g>
    <g id="ytick_4">
     <g id="text_22">
      <text style="font-size: 7px; font-family: 'Arial', 'DejaVu Sans', 'Liberation Sans', 'Bitstream Vera Sans', sans-serif; text-anchor: end; fill: #262626" x="285.079236" y="137.323598" transform="rotate(-0 285.079236 137.323598)">Gemini 3.1 Pro</text>
     </g>
    </g>
    <g id="ytick_5">
     <g id="text_23">
      <text style="font-size: 7px; font-family: 'Arial', 'DejaVu Sans', 'Liberation Sans', 'Bitstream Vera Sans', sans-serif; text-anchor: end; fill: #262626" x="285.079236" y="162.279891" transform="rotate(-0 285.079236 162.279891)">DeepSeek Chat</text>
     </g>
    </g>
    <g id="ytick_6">
     <g id="text_24">
      <text style="font-size: 7px; font-family: 'Arial', 'DejaVu Sans', 'Liberation Sans', 'Bitstream Vera Sans', sans-serif; text-anchor: end; fill: #262626" x="285.079236" y="187.150871" transform="rotate(-0 285.079236 187.150871)">Qwen3.5</text>
     </g>
    </g>
    <g id="ytick_7">
     <g id="text_25">
      <text style="font-size: 7px; font-family: 'Arial', 'DejaVu Sans', 'Liberation Sans', 'Bitstream Vera Sans', sans-serif; text-anchor: end; fill: #262626" x="285.079236" y="212.064507" transform="rotate(-0 285.079236 212.064507)">Aloe-70B</text>
     </g>
    </g>
    <g id="ytick_8">
     <g id="text_26">
      <text style="font-size: 7px; font-family: 'Arial', 'DejaVu Sans', 'Liberation Sans', 'Bitstream Vera Sans', sans-serif; text-anchor: end; fill: #262626" x="285.079236" y="236.978143" transform="rotate(-0 285.079236 236.978143)">Meditron3-8B</text>
     </g>
    </g>
    <g id="ytick_9">
     <g id="text_27">
      <text style="font-size: 7px; font-family: 'Arial', 'DejaVu Sans', 'Liberation Sans', 'Bitstream Vera Sans', sans-serif; text-anchor: end; fill: #262626" x="285.079236" y="261.89178" transform="rotate(-0 285.079236 261.89178)">GPT-5.4</text>
     </g>
    </g>
   </g>
   <g id="line2d_12">
    <path d="M 326.691286 60.077455 
L 423.541274 60.077455 
" clip-path="url(#p77724d2258)" style="fill: none; stroke: #b6abc8; stroke-width: 2; stroke-linecap: round"/>
   </g>
   <g id="line2d_13">
    <path d="M 354.209316 84.991091 
L 421.799913 84.991091 
" clip-path="url(#p77724d2258)" style="fill: none; stroke: #b6abc8; stroke-width: 2; stroke-linecap: round"/>
   </g>
   <g id="line2d_14">
    <path d="M 333.785355 109.904727 
L 401.100429 109.904727 
" clip-path="url(#p77724d2258)" style="fill: none; stroke: #b6abc8; stroke-width: 2; stroke-linecap: round"/>
   </g>
   <g id="line2d_15">
    <path d="M 356.51441 134.818364 
L 410.771538 134.818364 
" clip-path="url(#p77724d2258)" style="fill: none; stroke: #b6abc8; stroke-width: 2; stroke-linecap: round"/>
   </g>
   <g id="line2d_16">
    <path d="M 348.796416 159.732 
L 396.396553 159.732 
" clip-path="url(#p77724d2258)" style="fill: none; stroke: #b6abc8; stroke-width: 2; stroke-linecap: round"/>
   </g>
   <g id="line2d_17">
    <path d="M 362.149512 184.645636 
L 409.076917 184.645636 
" clip-path="url(#p77724d2258)" style="fill: none; stroke: #b6abc8; stroke-width: 2; stroke-linecap: round"/>
   </g>
   <g id="line2d_18">
    <path d="M 358.636491 209.559273 
L 398.851599 209.559273 
" clip-path="url(#p77724d2258)" style="fill: none; stroke: #b6abc8; stroke-width: 2; stroke-linecap: round"/>
   </g>
   <g id="line2d_19">
    <path d="M 342.532746 234.472909 
L 376.788294 234.472909 
" clip-path="url(#p77724d2258)" style="fill: none; stroke: #b6abc8; stroke-width: 2; stroke-linecap: round"/>
   </g>
   <g id="line2d_20">
    <path d="M 355.924937 259.386545 
L 371.128636 259.386545 
" clip-path="url(#p77724d2258)" style="fill: none; stroke: #b6abc8; stroke-width: 2; stroke-linecap: round"/>
   </g>
   <g id="patch_7">
    <path d="M 294.579236 269.352 
L 294.579236 50.112 
" style="fill: none; stroke: #333333; stroke-width: 1.25; stroke-linejoin: miter; stroke-linecap: square"/>
   </g>
   <g id="patch_8">
    <path d="M 294.579236 269.352 
L 500.031496 269.352 
" style="fill: none; stroke: #333333; stroke-width: 1.25; stroke-linejoin: miter; stroke-linecap: square"/>
   </g>
   <g id="PathCollection_14">
    <defs>
     <path id="mde704e52fc" d="M 0 3.24037 
C 0.859356 3.24037 1.683631 2.898944 2.291288 2.291288 
C 2.898944 1.683631 3.24037 0.859356 3.24037 0 
C 3.24037 -0.859356 2.898944 -1.683631 2.291288 -2.291288 
C 1.683631 -2.898944 0.859356 -3.24037 0 -3.24037 
C -0.859356 -3.24037 -1.683631 -2.898944 -2.291288 -2.291288 
C -2.898944 -1.683631 -3.24037 -0.859356 -3.24037 0 
C -3.24037 0.859356 -2.898944 1.683631 -2.291288 2.291288 
C -1.683631 2.898944 -0.859356 3.24037 0 3.24037 
z
" style="stroke: #ffffff"/>
    </defs>
    <g clip-path="url(#p77724d2258)">
     <use xlink:href="#mde704e52fc" x="326.691286" y="60.077455" style="fill: #c4b9e0; stroke: #ffffff"/>
    </g>
   </g>
   <g id="PathCollection_15">
    <defs>
     <path id="m8f8bbe867d" d="M 0 3.24037 
C 0.859356 3.24037 1.683631 2.898944 2.291288 2.291288 
C 2.898944 1.683631 3.24037 0.859356 3.24037 0 
C 3.24037 -0.859356 2.898944 -1.683631 2.291288 -2.291288 
C 1.683631 -2.898944 0.859356 -3.24037 0 -3.24037 
C -0.859356 -3.24037 -1.683631 -2.898944 -2.291288 -2.291288 
C -2.898944 -1.683631 -3.24037 -0.859356 -3.24037 0 
C -3.24037 0.859356 -2.898944 1.683631 -2.291288 2.291288 
C -1.683631 2.898944 -0.859356 3.24037 0 3.24037 
z
" style="stroke: #ffffff"/>
    </defs>
    <g clip-path="url(#p77724d2258)">
     <use xlink:href="#m8f8bbe867d" x="423.541274" y="60.077455" style="fill: #7b6ba8; stroke: #ffffff"/>
    </g>
   </g>
   <g id="text_28">
    <text style="font-size: 7.1px; font-family: 'Arial', 'DejaVu Sans', 'Liberation Sans', 'Bitstream Vera Sans', sans-serif; text-anchor: start; fill: #262626" x="428.375445" y="61.912915" transform="rotate(-0 428.375445 61.912915)">+0.240</text>
   </g>
   <g id="PathCollection_16">
    <g clip-path="url(#p77724d2258)">
     <use xlink:href="#mde704e52fc" x="354.209316" y="84.991091" style="fill: #c4b9e0; stroke: #ffffff"/>
    </g>
   </g>
   <g id="PathCollection_17">
    <g clip-path="url(#p77724d2258)">
     <use xlink:href="#m8f8bbe867d" x="421.799913" y="84.991091" style="fill: #7b6ba8; stroke: #ffffff"/>
    </g>
   </g>
   <g id="text_29">
    <text style="font-size: 7.1px; font-family: 'Arial', 'DejaVu Sans', 'Liberation Sans', 'Bitstream Vera Sans', sans-serif; text-anchor: start; fill: #262626" x="426.634083" y="86.826552" transform="rotate(-0 426.634083 86.826552)">+0.168</text>
   </g>
   <g id="PathCollection_18">
    <g clip-path="url(#p77724d2258)">
     <use xlink:href="#mde704e52fc" x="333.785355" y="109.904727" style="fill: #c4b9e0; stroke: #ffffff"/>
    </g>
   </g>
   <g id="PathCollection_19">
    <g clip-path="url(#p77724d2258)">
     <use xlink:href="#m8f8bbe867d" x="401.100429" y="109.904727" style="fill: #7b6ba8; stroke: #ffffff"/>
    </g>
   </g>
   <g id="text_30">
    <text style="font-size: 7.1px; font-family: 'Arial', 'DejaVu Sans', 'Liberation Sans', 'Bitstream Vera Sans', sans-serif; text-anchor: start; fill: #262626" x="405.9346" y="111.740188" transform="rotate(-0 405.9346 111.740188)">+0.167</text>
   </g>
   <g id="PathCollection_20">
    <g clip-path="url(#p77724d2258)">
     <use xlink:href="#mde704e52fc" x="356.51441" y="134.818364" style="fill: #c4b9e0; stroke: #ffffff"/>
    </g>
   </g>
   <g id="PathCollection_21">
    <g clip-path="url(#p77724d2258)">
     <use xlink:href="#m8f8bbe867d" x="410.771538" y="134.818364" style="fill: #7b6ba8; stroke: #ffffff"/>
    </g>
   </g>
   <g id="text_31">
    <text style="font-size: 7.1px; font-family: 'Arial', 'DejaVu Sans', 'Liberation Sans', 'Bitstream Vera Sans', sans-serif; text-anchor: start; fill: #262626" x="415.605709" y="136.653825" transform="rotate(-0 415.605709 136.653825)">+0.135</text>
   </g>
   <g id="PathCollection_22">
    <g clip-path="url(#p77724d2258)">
     <use xlink:href="#mde704e52fc" x="348.796416" y="159.732" style="fill: #c4b9e0; stroke: #ffffff"/>
    </g>
   </g>
   <g id="PathCollection_23">
    <g clip-path="url(#p77724d2258)">
     <use xlink:href="#m8f8bbe867d" x="396.396553" y="159.732" style="fill: #7b6ba8; stroke: #ffffff"/>
    </g>
   </g>
   <g id="text_32">
    <text style="font-size: 7.1px; font-family: 'Arial', 'DejaVu Sans', 'Liberation Sans', 'Bitstream Vera Sans', sans-serif; text-anchor: start; fill: #262626" x="401.230724" y="161.567461" transform="rotate(-0 401.230724 161.567461)">+0.118</text>
   </g>
   <g id="PathCollection_24">
    <g clip-path="url(#p77724d2258)">
     <use xlink:href="#mde704e52fc" x="362.149512" y="184.645636" style="fill: #c4b9e0; stroke: #ffffff"/>
    </g>
   </g>
   <g id="PathCollection_25">
    <g clip-path="url(#p77724d2258)">
     <use xlink:href="#m8f8bbe867d" x="409.076917" y="184.645636" style="fill: #7b6ba8; stroke: #ffffff"/>
    </g>
   </g>
   <g id="text_33">
    <text style="font-size: 7.1px; font-family: 'Arial', 'DejaVu Sans', 'Liberation Sans', 'Bitstream Vera Sans', sans-serif; text-anchor: start; fill: #262626" x="413.911087" y="186.481097" transform="rotate(-0 413.911087 186.481097)">+0.116</text>
   </g>
   <g id="PathCollection_26">
    <g clip-path="url(#p77724d2258)">
     <use xlink:href="#mde704e52fc" x="358.636491" y="209.559273" style="fill: #c4b9e0; stroke: #ffffff"/>
    </g>
   </g>
   <g id="PathCollection_27">
    <g clip-path="url(#p77724d2258)">
     <use xlink:href="#m8f8bbe867d" x="398.851599" y="209.559273" style="fill: #7b6ba8; stroke: #ffffff"/>
    </g>
   </g>
   <g id="text_34">
    <text style="font-size: 7.1px; font-family: 'Arial', 'DejaVu Sans', 'Liberation Sans', 'Bitstream Vera Sans', sans-serif; text-anchor: start; fill: #262626" x="403.68577" y="211.394734" transform="rotate(-0 403.68577 211.394734)">+0.100</text>
   </g>
   <g id="PathCollection_28">
    <g clip-path="url(#p77724d2258)">
     <use xlink:href="#mde704e52fc" x="342.532746" y="234.472909" style="fill: #c4b9e0; stroke: #ffffff"/>
    </g>
   </g>
   <g id="PathCollection_29">
    <g clip-path="url(#p77724d2258)">
     <use xlink:href="#m8f8bbe867d" x="376.788294" y="234.472909" style="fill: #7b6ba8; stroke: #ffffff"/>
    </g>
   </g>
   <g id="text_35">
    <text style="font-size: 7.1px; font-family: 'Arial', 'DejaVu Sans', 'Liberation Sans', 'Bitstream Vera Sans', sans-serif; text-anchor: start; fill: #262626" x="381.622465" y="236.30837" transform="rotate(-0 381.622465 236.30837)">+0.085</text>
   </g>
   <g id="PathCollection_30">
    <g clip-path="url(#p77724d2258)">
     <use xlink:href="#mde704e52fc" x="355.924937" y="259.386545" style="fill: #c4b9e0; stroke: #ffffff"/>
    </g>
   </g>
   <g id="PathCollection_31">
    <g clip-path="url(#p77724d2258)">
     <use xlink:href="#m8f8bbe867d" x="371.128636" y="259.386545" style="fill: #7b6ba8; stroke: #ffffff"/>
    </g>
   </g>
   <g id="text_36">
    <text style="font-size: 7.1px; font-family: 'Arial', 'DejaVu Sans', 'Liberation Sans', 'Bitstream Vera Sans', sans-serif; text-anchor: start; fill: #262626" x="375.962807" y="261.222006" transform="rotate(-0 375.962807 261.222006)">+0.038</text>
   </g>
   <g id="text_37">
    <text style="font-weight: 700; font-size: 10px; font-family: 'Arial', 'DejaVu Sans', 'Liberation Sans', 'Bitstream Vera Sans', sans-serif; text-anchor: start; fill: #333333" x="278.143056" y="30.961012" transform="rotate(-0 278.143056 30.961012)">b</text>
   </g>
   <g id="text_38">
    <text style="font-size: 9.5px; font-family: 'Arial', 'DejaVu Sans', 'Liberation Sans', 'Bitstream Vera Sans', sans-serif; text-anchor: start; fill: #262626" x="294.579236" y="38.112" transform="rotate(-0 294.579236 38.112)">Layer 2 is easier for every provider</text>
   </g>
   <g id="legend_1">
    <g id="line2d_21">
     <path d="M 438.458267 242.546988 
L 445.458267 242.546988 
L 452.458267 242.546988 
" style="fill: none; stroke: #000000; stroke-opacity: 0; stroke-width: 1.5; stroke-linecap: round"/>
     <defs>
      <path id="mb8892e0d22" d="M 0 3 
C 0.795609 3 1.55874 2.683901 2.12132 2.12132 
C 2.683901 1.55874 3 0.795609 3 0 
C 3 -0.795609 2.683901 -1.55874 2.12132 -2.12132 
C 1.55874 -2.683901 0.795609 -3 0 -3 
C -0.795609 -3 -1.55874 -2.683901 -2.12132 -2.12132 
C -2.683901 -1.55874 -3 -0.795609 -3 0 
C -3 0.795609 -2.683901 1.55874 -2.12132 2.12132 
C -1.55874 2.683901 -0.795609 3 0 3 
z
" style="stroke: #ffffff"/>
     </defs>
     <g>
      <use xlink:href="#mb8892e0d22" x="445.458267" y="242.546988" style="fill: #c4b9e0; stroke: #ffffff"/>
     </g>
    </g>
    <g id="text_39">
     <text style="font-size: 7px; font-family: 'Arial', 'DejaVu Sans', 'Liberation Sans', 'Bitstream Vera Sans', sans-serif; text-anchor: start; fill: #262626" x="458.058267" y="244.996987" transform="rotate(-0 458.058267 244.996987)">Layer 1</text>
    </g>
    <g id="line2d_22">
     <path d="M 438.458267 252.551519 
L 445.458267 252.551519 
L 452.458267 252.551519 
" style="fill: none; stroke: #000000; stroke-opacity: 0; stroke-width: 1.5; stroke-linecap: round"/>
     <defs>
      <path id="m2782cdc8ff" d="M 0 3 
C 0.795609 3 1.55874 2.683901 2.12132 2.12132 
C 2.683901 1.55874 3 0.795609 3 0 
C 3 -0.795609 2.683901 -1.55874 2.12132 -2.12132 
C 1.55874 -2.683901 0.795609 -3 0 -3 
C -0.795609 -3 -1.55874 -2.683901 -2.12132 -2.12132 
C -2.683901 -1.55874 -3 -0.795609 -3 0 
C -3 0.795609 -2.683901 1.55874 -2.12132 2.12132 
C -1.55874 2.683901 -0.795609 3 0 3 
z
" style="stroke: #ffffff"/>
     </defs>
     <g>
      <use xlink:href="#m2782cdc8ff" x="445.458267" y="252.551519" style="fill: #7b6ba8; stroke: #ffffff"/>
     </g>
    </g>
    <g id="text_40">
     <text style="font-size: 7px; font-family: 'Arial', 'DejaVu Sans', 'Liberation Sans', 'Bitstream Vera Sans', sans-serif; text-anchor: start; fill: #262626" x="458.058267" y="255.001519" transform="rotate(-0 458.058267 255.001519)">Layer 2</text>
    </g>
   </g>
  </g>
 </g>
 <defs>
  <clipPath id="p02cafb565d">
   <rect x="30.614173" y="50.112" width="189.016079" height="219.24"/>
  </clipPath>
  <clipPath id="p77724d2258">
   <rect x="294.579236" y="50.112" width="205.45226" height="219.24"/>
  </clipPath>
 </defs>
 <defs>
  <pattern id="h27f906cdaf" patternUnits="userSpaceOnUse" x="0" y="0" width="72" height="72">
   <rect x="0" y="0" width="73" height="73" fill="#eceff4"/>
   <path d="M -36 36 
L 36 -36 
M -32 40 
L 40 -32 
M -28 44 
L 44 -28 
M -24 48 
L 48 -24 
M -20 52 
L 52 -20 
M -16 56 
L 56 -16 
M -12 60 
L 60 -12 
M -8 64 
L 64 -8 
M -4 68 
L 68 -4 
M 0 72 
L 72 0 
M 4 76 
L 76 4 
M 8 80 
L 80 8 
M 12 84 
L 84 12 
M 16 88 
L 88 16 
M 20 92 
L 92 20 
M 24 96 
L 96 24 
M 28 100 
L 100 28 
M 32 104 
L 104 32 
M 36 108 
L 108 36 
" style="fill: #c6ccd5; stroke: #c6ccd5; stroke-width: 1.0; stroke-linecap: butt; stroke-linejoin: miter"/>
  </pattern>
 </defs>
</svg>
